<?xml version="1.0" encoding="UTF-8"?>
<svg width="275px" height="266px" viewBox="0 0 275 266" version="1.1" xmlns="http://www.w3.org/2000/svg" xmlns:xlink="http://www.w3.org/1999/xlink">
    <!-- Generator: Sketch 41 (35326) - http://www.bohemiancoding.com/sketch -->
    <title>cloud-light-rain</title>
    <desc>Created with Sketch.</desc>
    <defs></defs>
    <g id="Page-1" stroke="none" stroke-width="1" fill="none" fill-rule="evenodd">
        <g id="Drizzle" transform="translate(-50.000000, -68.000000)" fill="#BBBBBB">
            <path d="M50,207.054726 C50,222.394693 54.7056385,236.014096 64.1169154,247.912935 C73.5281924,259.811774 85.655058,267.585406 100.497512,271.233831 C104.643449,289.310116 113.951078,304.15257 128.420398,315.761194 C142.889718,327.369818 159.494196,333.174129 178.233831,333.174129 C196.475954,333.174129 212.748756,327.514925 227.052239,316.196517 C241.355721,304.878109 250.66335,290.3466 254.975124,272.60199 L259.20398,272.60199 C271.06136,272.60199 282.048093,269.679104 292.164179,263.833333 C302.280265,257.987562 310.281924,250.027363 316.169154,239.952736 C322.056385,229.878109 325,218.912106 325,207.054726 C325,189.475954 318.864013,174.343284 306.59204,161.656716 C294.320066,148.970149 279.394693,142.33665 261.81592,141.756219 C260.074627,141.756219 259.20398,142.502488 259.20398,143.995025 L259.20398,161.656716 C259.20398,163.232172 260.074627,164.0199 261.81592,164.0199 C273.092869,164.600332 282.732172,169.098673 290.733831,177.514925 C298.735489,185.931177 302.736318,195.777778 302.736318,207.054726 C302.736318,218.829187 298.466003,228.986733 289.925373,237.527363 C281.384743,246.067993 271.144279,250.338308 259.20398,250.338308 L237.810945,250.338308 C236.235489,250.338308 235.447761,251.084577 235.447761,252.577114 L234.452736,260.288557 C232.960199,274.633499 226.803483,286.656716 215.982587,296.358209 C205.161692,306.059701 192.578773,310.910448 178.233831,310.910448 C163.640133,310.910448 150.974295,306.018242 140.236318,296.233831 C129.498342,286.44942 123.424544,274.301824 122.014925,259.791045 L121.268657,253.199005 C121.268657,251.54063 120.39801,250.711443 118.656716,250.711443 L111.691542,249.840796 C100.66335,248.92869 91.3971808,244.34743 83.8930348,236.097015 C76.3888889,227.8466 72.6368159,218.165837 72.6368159,207.054726 C72.6368159,195.777778 76.6376451,185.931177 84.6393035,177.514925 C92.6409619,169.098673 102.280265,164.600332 113.557214,164.0199 C115.049751,164.0199 115.79602,163.232172 115.79602,161.656716 L115.79602,143.995025 C115.79602,142.502488 115.049751,141.756219 113.557214,141.756219 C95.8126036,142.33665 80.7835821,148.970149 68.4701493,161.656716 C56.1567164,174.343284 50,189.475954 50,207.054726 Z M123.00995,104.940299 C123.00995,108.008292 124.129353,110.661692 126.368159,112.900498 C128.524046,114.890547 131.053068,115.885572 133.955224,115.885572 C137.023217,115.885572 139.614428,114.849088 141.728856,112.776119 C143.843284,110.703151 144.900498,108.091211 144.900498,104.940299 C144.900498,101.789386 143.843284,99.1774461 141.728856,97.1044776 C139.614428,95.0315091 137.023217,93.9950249 133.955224,93.9950249 C130.887231,93.9950249 128.29602,95.0315091 126.181592,97.1044776 C124.067164,99.1774461 123.00995,101.789386 123.00995,104.940299 Z M134.452736,153.074627 C134.452736,156.059701 135.50995,158.630182 137.624378,160.78607 C139.738806,162.941957 142.330017,164.0199 145.39801,164.0199 C148.466003,164.0199 151.057214,162.941957 153.171642,160.78607 C155.28607,158.630182 156.343284,156.059701 156.343284,153.074627 C156.343284,149.923715 155.28607,147.249585 153.171642,145.052239 C151.057214,142.854892 148.466003,141.756219 145.39801,141.756219 C142.330017,141.756219 139.738806,142.854892 137.624378,145.052239 C135.50995,147.249585 134.452736,149.923715 134.452736,153.074627 Z M159.701493,78.9452736 C159.701493,81.9303483 160.820896,84.6252073 163.059701,87.0298507 C165.215589,89.185738 167.74461,90.2636816 170.646766,90.2636816 C173.797678,90.2636816 176.492537,89.1442786 178.731343,86.9054726 C180.970149,84.6666667 182.089552,82.013267 182.089552,78.9452736 C182.089552,75.8772803 180.970149,73.2860697 178.731343,71.1716418 C176.492537,69.0572139 173.797678,68 170.646766,68 C167.661692,68 165.091211,69.0572139 162.935323,71.1716418 C160.779436,73.2860697 159.701493,75.8772803 159.701493,78.9452736 Z M171.144279,127.452736 C171.144279,130.603648 172.222222,133.339967 174.378109,135.661692 C176.533997,137.817579 179.104478,138.895522 182.089552,138.895522 C185.157546,138.895522 187.810945,137.776119 190.049751,135.537313 C192.288557,133.298507 193.40796,130.603648 193.40796,127.452736 C193.40796,124.384743 192.309287,121.752073 190.11194,119.554726 C187.914594,117.35738 185.240464,116.258706 182.089552,116.258706 C179.104478,116.258706 176.533997,117.35738 174.378109,119.554726 C172.222222,121.752073 171.144279,124.384743 171.144279,127.452736 Z M176.741294,175.462687 C176.741294,178.53068 177.860697,181.18408 180.099502,183.422886 C182.421227,185.578773 184.950249,186.656716 187.686567,186.656716 C190.837479,186.656716 193.532338,185.558043 195.771144,183.360697 C198.00995,181.16335 199.129353,178.53068 199.129353,175.462687 C199.129353,172.394693 198.00995,169.803483 195.771144,167.689055 C193.532338,165.574627 190.837479,164.517413 187.686567,164.517413 C184.701493,164.517413 182.131012,165.574627 179.975124,167.689055 C177.819237,169.803483 176.741294,172.394693 176.741294,175.462687 Z M208.208955,104.940299 C208.208955,107.925373 209.286899,110.578773 211.442786,112.900498 C213.598673,114.890547 216.252073,115.885572 219.402985,115.885572 C222.553897,115.885572 225.165837,114.849088 227.238806,112.776119 C229.311774,110.703151 230.348259,108.091211 230.348259,104.940299 C230.348259,101.789386 229.311774,99.1774461 227.238806,97.1044776 C225.165837,95.0315091 222.553897,93.9950249 219.402985,93.9950249 C216.252073,93.9950249 213.598673,95.0522388 211.442786,97.1666667 C209.286899,99.2810945 208.208955,101.872305 208.208955,104.940299 Z M219.527363,153.074627 C219.527363,155.976783 220.646766,158.526534 222.885572,160.723881 C225.124378,162.921227 227.777778,164.0199 230.845771,164.0199 C233.913765,164.0199 236.504975,162.941957 238.619403,160.78607 C240.733831,158.630182 241.791045,156.059701 241.791045,153.074627 C241.791045,149.923715 240.733831,147.249585 238.619403,145.052239 C236.504975,142.854892 233.913765,141.756219 230.845771,141.756219 C227.694859,141.756219 225.02073,142.875622 222.823383,145.114428 C220.626036,147.353234 219.527363,150.006633 219.527363,153.074627 Z" id="cloud-light-rain" transform="translate(187.500000, 200.587065) rotate(180.000000) translate(-187.500000, -200.587065) "></path>
        </g>
    </g>
</svg>