<?xml version="1.0" encoding="UTF-8"?>
<svg width="275px" height="196px" viewBox="0 0 275 196" version="1.1" xmlns="http://www.w3.org/2000/svg" xmlns:xlink="http://www.w3.org/1999/xlink">
    <!-- Generator: Sketch 41 (35326) - http://www.bohemiancoding.com/sketch -->
    <title>cloud-cover</title>
    <desc>Created with Sketch.</desc>
    <defs></defs>
    <g id="Page-1" stroke="none" stroke-width="1" fill="none" fill-rule="evenodd">
        <g id="Buffering" transform="translate(-50.000000, -80.000000)" fill="#BBBBBB">
            <path d="M50,123.629307 C50,126.336615 50.937145,128.592705 52.8114351,130.397577 C54.6857251,132.202449 57.0112331,133.104885 59.7879591,133.104885 L267.105263,133.104885 C269.881989,133.104885 272.155434,132.219803 273.925596,130.44964 C275.695759,128.679477 276.580841,126.406033 276.580841,123.629307 C276.580841,121.060836 275.66105,118.908873 273.821469,117.173419 C271.981888,115.437965 269.743153,114.570239 267.105263,114.570239 L59.7879591,114.570239 C57.0112331,114.570239 54.6857251,115.437965 52.8114351,117.173419 C50.937145,118.908873 50,121.060836 50,123.629307 Z M79.0514956,158.511927 C79.0514956,161.219235 80.0233497,163.440616 81.9670579,165.17607 C83.6330935,166.842105 85.8197652,167.675123 88.5270731,167.675123 L295.948504,167.675123 C298.516976,167.675123 300.668939,166.790042 302.404392,165.019879 C304.139846,163.249716 305.007573,161.080399 305.007573,158.511927 C305.007573,155.874038 304.139846,153.635302 302.404392,151.795721 C300.668939,149.95614 298.516976,149.03635 295.948504,149.03635 L88.5270731,149.03635 C85.8891834,149.03635 83.6504481,149.973495 81.8108671,151.847785 C79.9712861,153.722075 79.0514956,155.943456 79.0514956,158.511927 Z M80.5092768,184.960242 C80.5092768,183.988388 81.064622,183.502461 82.1753124,183.502461 L98.1067777,183.502461 C98.8009592,183.502461 99.5298498,184.092515 100.293449,185.272624 C102.931339,191.03433 106.870819,195.754765 112.111889,199.433927 C117.35296,203.113088 123.097312,205.195633 129.344945,205.68156 L135.488451,206.514578 C136.737978,206.514578 137.362741,207.17405 137.362741,208.492995 L138.091632,214.011738 C139.271741,226.021078 144.35662,236.034646 153.34627,244.052442 C162.335921,252.070239 172.870125,256.079137 184.948883,256.079137 C196.958223,256.079137 207.423009,252.122302 216.343241,244.208633 C225.263473,236.294964 230.348353,226.368169 231.59788,214.428247 L232.430897,208.076486 C232.430897,206.826959 233.159788,206.202196 234.617569,206.202196 L252.319197,206.202196 C259.469267,206.202196 265.977218,204.293197 271.843052,200.475199 C277.708886,196.657201 282.064874,191.589676 284.911019,185.272624 C285.674618,184.092515 286.438218,183.502461 287.201817,183.502461 L303.133283,183.502461 C304.452228,183.502461 304.972864,184.335479 304.695191,186.001515 C301.432538,197.386091 294.97665,206.688123 285.327527,213.907611 C275.678405,221.127098 264.675628,224.736842 252.319197,224.736842 L248.778872,224.736842 C245.09971,239.522908 237.342231,251.619021 225.506437,261.02518 C213.670642,270.431339 200.151458,275.134419 184.948883,275.134419 C169.399217,275.134419 155.585006,270.257794 143.506248,260.504544 C131.42749,250.751294 123.687366,238.30809 120.285877,223.174934 C110.845008,220.953553 102.566894,216.476082 95.4515335,209.742522 C88.3361732,203.008961 83.39013,194.956456 80.613404,185.585006 L80.613404,186.001515 C80.5439859,185.79326 80.5092768,185.446169 80.5092768,184.960242 Z M98.4191594,89.5797047 C98.4191594,92.2175943 99.3910135,94.4042661 101.334722,96.1397198 C103.000757,97.8057554 105.222138,98.6387732 107.998864,98.6387732 L315.524423,98.6387732 C318.162312,98.6387732 320.401048,97.7710463 322.240629,96.0355926 C324.08021,94.3001388 325,92.1481762 325,89.5797047 C325,86.941815 324.062855,84.6857251 322.188565,82.8114351 C320.314275,80.937145 318.092894,80 315.524423,80 L107.998864,80 C105.430393,80 103.191657,80.9544996 101.282658,82.8634987 C99.373659,84.7724978 98.4191594,87.0112331 98.4191594,89.5797047 Z" id="cloud-cover" transform="translate(187.500000, 177.567209) rotate(180.000000) translate(-187.500000, -177.567209) "></path>
        </g>
    </g>
</svg>