<?xml version="1.0" encoding="UTF-8"?>
<svg width="275px" height="283px" viewBox="0 0 275 283" version="1.1" xmlns="http://www.w3.org/2000/svg" xmlns:xlink="http://www.w3.org/1999/xlink">
    <!-- Generator: Sketch 41 (35326) - http://www.bohemiancoding.com/sketch -->
    <title>cloud-lightning</title>
    <desc>Created with Sketch.</desc>
    <defs></defs>
    <g id="Page-1" stroke="none" stroke-width="1" fill="none" fill-rule="evenodd">
        <g id="Fees" transform="translate(-50.000000, -51.000000)" fill="#BBBBBB">
            <path d="M50,187.959207 C50,174.020204 54.1738259,161.55779 62.5214777,150.571965 C70.8691294,139.58614 81.6974513,132.085066 95.0064433,128.068743 L86.8556701,106.68773 C86.3044101,104.955198 86.8950458,104.088932 88.6275773,104.088932 L115.324313,104.088932 L99.0227663,51.4042244 L102.566581,51.4042244 L155.841924,122.280513 C156.314433,122.831773 156.393184,123.402721 156.078179,123.993357 C155.763173,124.583992 155.172537,124.87931 154.306271,124.87931 L126.900773,124.87931 L158.08634,183.352248 C158.952606,185.163531 158.401346,186.069173 156.43256,186.069173 L119.104381,186.069173 C118.001861,186.069173 117.056844,185.439161 116.26933,184.179139 L102.802835,147.914104 C93.8251718,150.197896 86.3634737,155.100172 80.4177405,162.620934 C74.4720074,170.141696 71.4991409,178.587787 71.4991409,187.959207 C71.4991409,198.433148 75.0626432,207.528938 82.1896478,215.246578 C89.3166523,222.964219 98.1565006,227.45305 108.709192,228.713073 L115.324313,229.65809 C116.978093,229.65809 117.804983,230.406229 117.804983,231.902506 L118.75,238.281372 C120.088774,251.90537 125.857317,263.324328 136.055627,272.538245 C146.253938,281.752163 158.243843,286.359121 172.025344,286.359121 C185.728093,286.359121 197.737686,281.732475 208.054124,272.479181 C218.370561,263.225888 224.237543,251.826618 225.655069,238.281372 L226.600086,231.075616 C226.600086,229.500588 227.308849,228.713073 228.726375,228.713073 L249.162371,228.713073 C260.581329,228.713073 270.346506,224.716438 278.457904,216.723168 C286.569301,208.729897 290.625,199.141911 290.625,187.959207 C290.625,177.249013 286.844931,167.956344 279.284794,160.0812 C271.724656,152.206057 262.471363,147.874728 251.524914,147.087214 C249.949885,147.087214 249.162371,146.2997 249.162371,144.724671 L249.162371,127.596235 C249.162371,126.099958 249.949885,125.351819 251.524914,125.351819 C268.298969,125.903079 282.53329,132.262257 294.227878,144.429353 C305.922466,156.59645 311.769759,171.106401 311.769759,187.959207 C311.769759,198.905656 309.013459,209.182718 303.500859,218.790393 C313.108534,228.083062 319.448024,239.108262 322.51933,251.865994 L324.881873,260.489276 C324.960624,260.568027 325,260.843657 325,261.316166 C325,262.339935 324.369989,263.009322 323.109966,263.324328 L315.313574,265.450616 C308.068442,267.576905 301.92583,271.101031 296.885739,276.022996 C291.845647,280.94496 288.282145,286.063803 286.195232,291.379525 C284.108319,296.695247 283.104238,301.991281 283.18299,307.267626 C283.18299,310.732689 283.616123,314.31588 284.482388,318.017197 L285.899914,325.695462 C286.21492,326.955484 285.624284,327.939877 284.128007,328.64864 L274.087199,331.719946 C268.180842,332.901218 262.983247,333.491853 258.494416,333.491853 C253.848081,333.570605 249.103308,333.078408 244.260095,332.015264 C239.416881,330.95212 234.435853,329.258964 229.31701,326.935797 C224.198167,324.612629 219.256515,321.305069 214.492053,317.013116 C209.727592,312.721163 205.573454,307.661384 202.029639,301.833778 C191.319444,305.692598 181.318013,307.622008 172.025344,307.622008 C154.22752,307.622008 138.437858,302.08972 124.656357,291.025144 C110.874857,279.960568 102.015321,265.844373 98.0777491,248.676561 C84.1387457,245.369001 72.6410367,238.064806 63.584622,226.763975 C54.5282073,215.463145 50,202.528222 50,187.959207 Z M170.844072,111.530943 C170.844072,108.459637 171.867841,105.978967 173.915378,104.088932 C175.962915,102.041395 178.40421,101.017626 181.239261,101.017626 C184.231816,101.017626 186.791237,102.041395 188.917526,104.088932 C191.043814,106.13647 192.106959,108.61714 192.106959,111.530943 C192.106959,114.523497 191.043814,117.102606 188.917526,119.268271 C186.791237,121.433935 184.231816,122.516767 181.239261,122.516767 C178.482961,122.516767 176.061355,121.433935 173.974442,119.268271 C171.887529,117.102606 170.844072,114.523497 170.844072,111.530943 Z M170.844072,157.364276 C170.844072,154.371722 171.867841,151.930427 173.915378,150.040393 C175.962915,147.992856 178.40421,146.969087 181.239261,146.969087 C184.310567,146.969087 186.889676,147.95348 188.976589,149.922266 C191.063502,151.891051 192.106959,154.371722 192.106959,157.364276 C192.106959,160.278079 191.043814,162.778437 188.917526,164.86535 C186.791237,166.952263 184.231816,167.995719 181.239261,167.995719 C178.40421,167.995719 175.962915,166.952263 173.915378,164.86535 C171.867841,162.778437 170.844072,160.278079 170.844072,157.364276 Z M170.844072,65.2251007 C170.844072,62.4688006 171.867841,60.0668819 173.915378,58.0193447 C176.041667,55.893056 178.482961,54.8299117 181.239261,54.8299117 C184.231816,54.8299117 186.791237,55.8339925 188.917526,57.842154 C191.043814,59.8503155 192.106959,62.3112977 192.106959,65.2251007 C192.106959,68.2176551 191.043814,70.7967645 188.917526,72.9624289 C186.791237,75.1280933 184.231816,76.2109255 181.239261,76.2109255 C178.482961,76.2109255 176.061355,75.1280933 173.974442,72.9624289 C171.887529,70.7967645 170.844072,68.2176551 170.844072,65.2251007 Z M211.597938,135.983262 C211.597938,132.990708 212.641395,130.450974 214.728308,128.364061 C216.815221,126.277148 219.315578,125.233692 222.229381,125.233692 C225.143184,125.233692 227.604167,126.277148 229.612328,128.364061 C231.62049,130.450974 232.62457,132.990708 232.62457,135.983262 C232.62457,138.818314 231.62049,141.259608 229.612328,143.307145 C227.604167,145.354683 225.143184,146.378451 222.229381,146.378451 C219.315578,146.378451 216.815221,145.354683 214.728308,143.307145 C212.641395,141.259608 211.597938,138.818314 211.597938,135.983262 Z M211.597938,90.1499289 C211.597938,87.3148774 212.621707,84.873583 214.669244,82.8260457 C216.716781,80.7785085 219.236827,79.7547399 222.229381,79.7547399 C225.221936,79.7547399 227.702606,80.7588207 229.671392,82.7669822 C231.640178,84.7751437 232.62457,87.2361259 232.62457,90.1499289 C232.62457,93.1424833 231.640178,95.6231534 229.671392,97.5919392 C227.702606,99.560725 225.221936,100.545118 222.229381,100.545118 C219.236827,100.545118 216.716781,99.560725 214.669244,97.5919392 C212.621707,95.6231534 211.597938,93.1424833 211.597938,90.1499289 Z M220.103093,290.257317 C224.276919,297.266195 229.907646,302.680356 236.995275,306.4998 C244.082904,310.319244 251.485538,312.228967 259.203179,312.228967 L261.920103,312.228967 L261.920103,308.212644 C261.920103,300.179998 263.337629,292.383606 266.17268,284.823468 C269.007732,277.263331 273.279997,270.293829 278.989476,263.914963 C284.698955,257.536097 291.45189,252.45663 299.248282,248.676561 C297.121993,243.951475 293.93256,239.620147 289.679983,235.682575 C278.182274,245.526504 264.676403,250.448468 249.162371,250.448468 L245.027921,250.448468 C241.484107,266.277506 233.17583,279.547122 220.103093,290.257317 Z" id="cloud-lightning" transform="translate(187.500000, 192.452112) rotate(180.000000) translate(-187.500000, -192.452112) "></path>
        </g>
    </g>
</svg>