<?xml version="1.0" encoding="UTF-8"?>
<svg width="208px" height="276px" viewBox="0 0 208 276" version="1.1" xmlns="http://www.w3.org/2000/svg" xmlns:xlink="http://www.w3.org/1999/xlink">
    <!-- Generator: Sketch 41 (35326) - http://www.bohemiancoding.com/sketch -->
    <title>lightning</title>
    <desc>Created with Sketch.</desc>
    <defs></defs>
    <g id="Page-1" stroke="none" stroke-width="1" fill="none" fill-rule="evenodd">
        <g id="Charges" transform="translate(-84.000000, -58.000000)" fill="#BBBBBB">
            <path d="M84,58.5 L89.8215726,58.5 L191.560484,209.029234 C192.946573,211.709005 192.207325,213.048891 189.342742,213.048891 L147.344254,213.048891 L191.560484,293.580645 C192.854167,296.260417 191.883905,297.600302 188.649698,297.600302 L132.374496,297.600302 C130.803595,297.600302 129.371304,296.722446 128.077621,294.966734 L87.0493952,185.604335 C86.6797715,182.924563 87.6038306,181.584677 89.8215726,181.584677 L130.433972,181.584677 L84,58.5 Z M209.718246,152.060988 L213.737903,152.060988 L290.943044,265.443044 C291.682292,266.644321 291.867103,267.614583 291.49748,268.353831 C291.127856,269.093078 290.296203,269.462702 289.00252,269.462702 L257.954133,269.462702 L290.25,329.064516 C292.005712,332.021505 291.127856,333.5 287.616431,333.5 L247.142641,333.5 C245.202117,333.5 243.723622,332.575941 242.707157,330.727823 L211.935988,249.641633 C211.473958,248.34795 211.520161,247.331485 212.074597,246.592238 C212.629032,245.852991 213.553091,245.483367 214.846774,245.483367 L245.063508,245.483367 L209.718246,152.060988 Z" id="lightning" transform="translate(187.841146, 196.000000) rotate(180.000000) translate(-187.841146, -196.000000) "></path>
        </g>
    </g>
</svg>