<svg xmlns="http://www.w3.org/2000/svg" xmlns:xlink="http://www.w3.org/1999/xlink" version="1.1" x="0px" y="0px" viewBox="0 0 100 125" enable-background="new 0 0 100 100" xml:space="preserve"><g><path d="M20.979,50.118h7.096c0.313-1.91,0.995-3.692,1.981-5.273l-9.224-0.009l-0.127,0.009   c-6.182-0.034-11.196-5.074-11.196-11.263c0-6.208,5.051-11.26,11.26-11.26c0.455,0,0.945,0.038,1.542,0.12l2.042,0.28l0.768-1.912   c2.639-6.573,8.912-10.82,15.981-10.82c5.159,0,10.005,2.285,13.294,6.27l0.799,0.968l1.258-0.009   c0.072-0.001,0.148-0.004,0.23-0.01c5.633,0.025,10.76,3.58,12.77,8.861l0.689,1.819l2.121-0.135   c0.115-0.008,0.23-0.018,0.35-0.018c4.766,0,8.641,3.875,8.641,8.64c0,0.273-0.018,0.542-0.039,0.81   c1.662,1.24,3.086,2.79,4.191,4.599c0.723-1.661,1.127-3.489,1.127-5.408c0-7.33-5.693-13.354-12.893-13.882   c-3.029-6.084-9.184-10.163-15.994-10.537C53.387,7.336,47.425,4.71,41.102,4.71c-8.577,0-16.255,4.78-20.069,12.334   c-9.213-0.177-16.804,7.33-16.804,16.537c0,9.12,7.421,16.542,16.54,16.542C20.849,50.124,20.927,50.122,20.979,50.118z"/><path d="M85.283,43.425c-2.467-4.951-7.475-8.268-13.016-8.572c-3.465-3.762-8.314-5.896-13.461-5.896   c-6.979,0-13.226,3.889-16.33,10.035c-7.496-0.144-13.673,5.965-13.673,13.457c0,7.422,6.038,13.461,13.458,13.461   c0.065,0,0.13-0.005,0.171-0.007L82.74,65.91c0.199,0.022,0.41,0.034,0.633,0.034c0.221,0,0.438-0.012,0.658-0.024   c0.137-0.008,0.273-0.021,0.414-0.021c6.246,0,11.326-5.015,11.326-11.181C95.771,48.758,91.139,43.854,85.283,43.425z    M84.445,61.604c-0.227,0-0.453,0.012-0.676,0.025c-0.133,0.01-0.266,0.018-0.396,0.018c-0.039,0.002-0.082,0.002-0.121-0.008   l-40.938-0.033l-0.103,0.008c-5.028-0.031-9.11-4.129-9.11-9.166c0-5.052,4.109-9.161,9.161-9.161c0.37,0,0.771,0.029,1.255,0.098   l1.662,0.228l0.623-1.557c2.146-5.348,7.252-8.803,13.004-8.803c4.197,0,8.143,1.858,10.816,5.101l0.648,0.789l1.023-0.011   c0.063,0,0.123,0,0.189-0.007c4.582,0.022,8.752,2.914,10.389,7.21l0.561,1.482l1.729-0.112c0.092-0.006,0.188-0.015,0.283-0.015   c3.875,0,7.029,3.154,7.029,7.029C91.475,58.58,88.387,61.604,84.445,61.604z"/><path d="M23.912,58.883l-1.687-1.688h2.385c0.277,0,0.501-0.225,0.501-0.5s-0.224-0.5-0.501-0.5h-2.385l1.688-1.688   c0.194-0.195,0.194-0.512-0.002-0.707c-0.194-0.195-0.512-0.195-0.706,0l-1.688,1.688v-2.387c0-0.275-0.224-0.5-0.501-0.5   c-0.275,0-0.5,0.225-0.5,0.5v2.385l-1.687-1.688c-0.196-0.194-0.514-0.194-0.708,0c-0.195,0.195-0.195,0.513,0,0.707l1.688,1.688   h-2.389c-0.275,0-0.5,0.224-0.5,0.5s0.225,0.5,0.5,0.5h2.389l-1.688,1.688c-0.195,0.195-0.195,0.512,0,0.707   c0.098,0.098,0.227,0.146,0.354,0.146c0.129,0,0.257-0.049,0.354-0.146l1.685-1.686v2.385c0,0.275,0.225,0.5,0.5,0.5   c0.277,0,0.501-0.225,0.501-0.5V57.9l1.688,1.688c0.098,0.099,0.226,0.146,0.354,0.146s0.257-0.049,0.354-0.146   C24.109,59.395,24.109,59.078,23.912,58.883z"/><path d="M31.445,71.196H29.06l1.688-1.688c0.194-0.194,0.194-0.512,0-0.707c-0.195-0.194-0.513-0.194-0.707,0l-1.689,1.688v-2.387   c0-0.276-0.224-0.5-0.5-0.5s-0.5,0.224-0.5,0.5v2.385l-1.688-1.687c-0.195-0.195-0.513-0.195-0.707,0   c-0.195,0.195-0.195,0.512,0,0.707l1.688,1.688h-2.388c-0.276,0-0.5,0.225-0.5,0.5s0.224,0.5,0.5,0.5h2.388l-1.687,1.688   c-0.195,0.195-0.195,0.513,0,0.707c0.098,0.099,0.226,0.146,0.354,0.146s0.256-0.049,0.354-0.146l1.686-1.685v2.384   c0,0.276,0.224,0.5,0.5,0.5s0.5-0.224,0.5-0.5v-2.388l1.688,1.688c0.098,0.098,0.227,0.146,0.354,0.146   c0.129,0,0.257-0.049,0.354-0.146c0.194-0.195,0.194-0.512-0.001-0.707l-1.687-1.688h2.385c0.276,0,0.5-0.224,0.5-0.5   C31.946,71.42,31.721,71.196,31.445,71.196z"/><path d="M18.101,85.862h-2.385l1.688-1.688c0.195-0.194,0.195-0.512,0-0.707c-0.194-0.194-0.513-0.194-0.708,0l-1.688,1.688v-2.387   c0-0.276-0.226-0.5-0.5-0.5c-0.277,0-0.501,0.224-0.501,0.5v2.385l-1.688-1.687c-0.195-0.195-0.513-0.195-0.708,0   c-0.194,0.195-0.194,0.512,0.001,0.707l1.688,1.688h-2.388c-0.276,0-0.5,0.225-0.5,0.5s0.224,0.5,0.5,0.5h2.388l-1.688,1.688   c-0.194,0.195-0.194,0.513,0.001,0.707c0.099,0.099,0.226,0.146,0.354,0.146c0.127,0,0.256-0.049,0.354-0.146l1.686-1.685v2.384   c0,0.276,0.224,0.5,0.501,0.5c0.274,0,0.5-0.224,0.5-0.5v-2.388l1.688,1.688c0.099,0.098,0.227,0.146,0.354,0.146   s0.256-0.049,0.354-0.146c0.195-0.195,0.195-0.512,0-0.707l-1.687-1.688h2.386c0.275,0,0.5-0.225,0.5-0.5   S18.376,85.862,18.101,85.862z"/><path d="M40.278,89.695h-2.385l1.688-1.688c0.194-0.195,0.194-0.512-0.001-0.707s-0.514-0.195-0.708,0l-1.688,1.688v-2.387   c0-0.275-0.225-0.5-0.501-0.5s-0.501,0.225-0.501,0.5v2.385l-1.687-1.688c-0.195-0.194-0.514-0.194-0.708,0   c-0.195,0.195-0.195,0.513,0.001,0.707l1.688,1.688h-2.388c-0.276,0-0.501,0.224-0.501,0.5s0.225,0.5,0.501,0.5h2.388l-1.688,1.688   c-0.195,0.195-0.195,0.512,0.001,0.707c0.098,0.098,0.226,0.146,0.354,0.146s0.257-0.049,0.354-0.146l1.684-1.686v2.385   c0,0.275,0.225,0.5,0.501,0.5s0.501-0.225,0.501-0.5v-2.388l1.688,1.687c0.099,0.099,0.226,0.146,0.354,0.146   c0.127,0,0.256-0.049,0.354-0.146c0.195-0.194,0.195-0.512,0-0.707l-1.688-1.687h2.386c0.276,0,0.501-0.224,0.501-0.5   S40.554,89.695,40.278,89.695z"/><path d="M53.945,71.196h-2.387l1.689-1.688c0.193-0.194,0.193-0.512,0-0.707c-0.195-0.194-0.514-0.194-0.707,0l-1.689,1.689v-2.388   c0-0.276-0.225-0.5-0.5-0.5c-0.276,0-0.5,0.224-0.5,0.5v2.386l-1.688-1.688c-0.196-0.195-0.514-0.195-0.708,0   c-0.195,0.195-0.195,0.512,0.001,0.707l1.688,1.688h-2.387c-0.277,0-0.501,0.225-0.501,0.5s0.224,0.5,0.501,0.5h2.388l-1.688,1.688   c-0.195,0.195-0.195,0.513,0.001,0.707c0.098,0.099,0.225,0.146,0.354,0.146c0.127,0,0.256-0.049,0.354-0.146l1.686-1.686v2.385   c0,0.276,0.224,0.5,0.5,0.5c0.277,0,0.5-0.224,0.5-0.5v-2.388l1.689,1.688c0.098,0.098,0.225,0.146,0.354,0.146   c0.127,0,0.256-0.049,0.354-0.146c0.195-0.195,0.195-0.512,0-0.707l-1.688-1.688h2.387c0.275,0,0.5-0.224,0.5-0.5   C54.447,71.42,54.221,71.196,53.945,71.196z"/><path d="M63.445,85.529h-2.387l1.689-1.688c0.193-0.195,0.193-0.512,0-0.707c-0.195-0.195-0.514-0.195-0.707,0l-1.689,1.689v-2.389   c0-0.275-0.225-0.5-0.5-0.5c-0.277,0-0.5,0.225-0.5,0.5v2.386l-1.688-1.688c-0.195-0.194-0.514-0.194-0.707,0   c-0.195,0.195-0.195,0.513,0,0.707l1.688,1.688h-2.389c-0.275,0-0.5,0.224-0.5,0.5s0.225,0.5,0.5,0.5h2.389l-1.688,1.688   c-0.195,0.195-0.195,0.512,0,0.707c0.098,0.098,0.227,0.146,0.354,0.146c0.129,0,0.256-0.049,0.355-0.146l1.686-1.687v2.386   c0,0.275,0.223,0.5,0.5,0.5c0.275,0,0.5-0.225,0.5-0.5v-2.389l1.688,1.688c0.098,0.099,0.227,0.146,0.354,0.146   c0.129,0,0.256-0.049,0.355-0.146c0.193-0.194,0.193-0.512,0-0.707l-1.688-1.687h2.385c0.277,0,0.5-0.224,0.5-0.5   S63.721,85.529,63.445,85.529z"/><path d="M78.277,71.862h-2.385l1.688-1.688c0.195-0.194,0.195-0.512,0-0.707c-0.195-0.194-0.512-0.194-0.707,0l-1.689,1.689v-2.388   c0-0.276-0.223-0.5-0.5-0.5c-0.275,0-0.5,0.224-0.5,0.5v2.386l-1.688-1.688c-0.195-0.195-0.512-0.195-0.707,0s-0.195,0.512,0,0.707   l1.688,1.688H71.09c-0.277,0-0.5,0.225-0.5,0.5s0.223,0.5,0.5,0.5h2.389l-1.688,1.688c-0.195,0.195-0.195,0.513,0,0.707   c0.098,0.099,0.225,0.146,0.354,0.146c0.127,0,0.256-0.049,0.354-0.146l1.686-1.686v2.385c0,0.276,0.225,0.5,0.5,0.5   c0.277,0,0.5-0.224,0.5-0.5v-2.388l1.689,1.688c0.098,0.098,0.225,0.146,0.354,0.146c0.127,0,0.256-0.049,0.354-0.146   c0.195-0.195,0.195-0.512,0-0.707l-1.688-1.688h2.387c0.275,0,0.5-0.225,0.5-0.5S78.555,71.862,78.277,71.862z"/><path d="M87.777,90.696h-2.385l1.688-1.688c0.195-0.194,0.195-0.512,0-0.707c-0.195-0.194-0.512-0.194-0.707,0l-1.689,1.689v-2.388   c0-0.276-0.223-0.5-0.5-0.5c-0.275,0-0.5,0.224-0.5,0.5v2.386l-1.688-1.688c-0.195-0.195-0.512-0.195-0.707,0s-0.195,0.512,0,0.707   l1.688,1.688H80.59c-0.277,0-0.5,0.225-0.5,0.5s0.223,0.5,0.5,0.5h2.389l-1.688,1.688c-0.195,0.195-0.195,0.513,0,0.707   c0.098,0.099,0.225,0.146,0.354,0.146c0.127,0,0.256-0.049,0.354-0.146l1.686-1.686v2.385c0,0.276,0.225,0.5,0.5,0.5   c0.277,0,0.5-0.224,0.5-0.5v-2.388l1.689,1.688c0.098,0.098,0.225,0.146,0.354,0.146c0.127,0,0.256-0.049,0.354-0.146   c0.195-0.195,0.195-0.512,0-0.707l-1.688-1.688h2.387c0.275,0,0.5-0.225,0.5-0.5S88.055,90.696,87.777,90.696z"/></g><text x="0" y="115" fill="#000000" font-size="5px" font-weight="bold" font-family="'Helvetica Neue', Helvetica, Arial-Unicode, Arial, Sans-serif">Created by Randomhero</text><text x="0" y="120" fill="#000000" font-size="5px" font-weight="bold" font-family="'Helvetica Neue', Helvetica, Arial-Unicode, Arial, Sans-serif">from the Noun Project</text></svg>