<?xml version="1.0" encoding="UTF-8"?>
<svg width="275px" height="276px" viewBox="0 0 275 276" version="1.1" xmlns="http://www.w3.org/2000/svg" xmlns:xlink="http://www.w3.org/1999/xlink">
    <!-- Generator: Sketch 41 (35326) - http://www.bohemiancoding.com/sketch -->
    <title>sun</title>
    <desc>Created with Sketch.</desc>
    <defs></defs>
    <g id="Page-1" stroke="none" stroke-width="1" fill="none" fill-rule="evenodd">
        <g id="Golden" transform="translate(-50.000000, -58.000000)" fill="#BBBBBB">
            <path d="M50,196.060653 C50,199.214601 51.0917512,201.883326 53.2752536,204.066828 C55.5396265,206.16946 58.1274813,207.220776 61.0388178,207.220776 L87.4834583,207.220776 C90.4756653,207.220776 92.962432,206.129025 94.9437583,203.945523 C96.9250845,201.76202 97.9157477,199.13373 97.9157477,196.060653 C97.9157477,192.987575 96.9250845,190.379503 94.9437583,188.236436 C92.962432,186.093369 90.4756653,185.021835 87.4834583,185.021835 L61.0388178,185.021835 C58.0466108,185.021835 55.4587561,186.113586 53.2752536,188.297089 C51.0917512,190.480591 50,193.068446 50,196.060653 Z M86.9982356,106.415748 C86.9982356,109.407955 88.0091163,112.036245 90.0308778,114.300618 L109.075871,132.739082 C111.016762,134.760844 113.564182,135.771725 116.71813,135.771725 C119.791207,135.771725 122.358844,134.801279 124.421041,132.860388 C126.483238,130.919497 127.514336,128.452948 127.514336,125.460741 C127.514336,122.306793 126.46302,119.557197 124.360388,117.211954 L105.921923,98.7734892 C100.665343,94.6490957 95.3683282,94.6490957 90.0308778,98.7734892 C88.0091163,100.956992 86.9982356,103.504411 86.9982356,106.415748 Z M86.9982356,285.584252 C86.9982356,288.576459 88.0091163,291.204749 90.0308778,293.469122 C92.5378621,295.571754 95.2874577,296.62307 98.2796648,296.62307 C101.110131,296.62307 103.65755,295.571754 105.921923,293.469122 L124.360388,274.424129 C126.46302,272.483238 127.514336,269.935818 127.514336,266.78187 C127.514336,263.708793 126.483238,261.141156 124.421041,259.078959 C122.358844,257.016762 119.791207,255.985664 116.71813,255.985664 C113.564182,255.985664 111.016762,257.03698 109.075871,259.139612 L90.0308778,277.578077 C88.0091163,279.761579 86.9982356,282.430304 86.9982356,285.584252 Z M119.993383,196.060653 C119.993383,208.110351 123.026026,219.331128 129.09131,229.722982 C135.156595,240.114836 143.385164,248.343405 153.777018,254.40869 C164.168872,260.473974 175.389649,263.506617 187.439347,263.506617 C196.496839,263.506617 205.190413,261.707249 213.520071,258.108513 C221.849728,254.509778 229.026981,249.697986 235.051831,243.673136 C241.07668,237.648287 245.868255,230.471034 249.426555,222.141376 C252.984855,213.811719 254.764005,205.118144 254.764005,196.060653 C254.764005,183.930084 251.751581,172.68909 245.726731,162.337671 C239.701882,151.986252 231.513748,143.798118 221.162329,137.773269 C210.81091,131.748419 199.569916,128.735995 187.439347,128.735995 C175.308778,128.735995 164.067784,131.748419 153.716365,137.773269 C143.364946,143.798118 135.156595,151.986252 129.09131,162.337671 C123.026026,172.68909 119.993383,183.930084 119.993383,196.060653 Z M141.949713,196.060653 C141.949713,183.444861 146.377371,172.668872 155.232686,163.732686 C164.088002,154.796501 174.823555,150.328408 187.439347,150.328408 C200.055139,150.328408 210.831128,154.796501 219.767314,163.732686 C228.703499,172.668872 233.171592,183.444861 233.171592,196.060653 C233.171592,208.514704 228.703499,219.149169 219.767314,227.964049 C210.831128,236.77893 200.055139,241.18637 187.439347,241.18637 C174.904426,241.18637 164.18909,236.77893 155.293339,227.964049 C146.397589,219.149169 141.949713,208.514704 141.949713,196.060653 Z M176.400529,95.4982356 C176.400529,98.571313 177.472063,101.159168 179.61513,103.2618 C181.758197,105.364432 184.36627,106.415748 187.439347,106.415748 C190.593295,106.415748 193.221585,105.364432 195.324217,103.2618 C197.426849,101.159168 198.478165,98.571313 198.478165,95.4982356 L198.478165,69.7814292 C198.478165,66.6274813 197.406631,63.9587561 195.263564,61.7752536 C193.120497,59.5917512 190.512425,58.5 187.439347,58.5 C184.36627,58.5 181.758197,59.5917512 179.61513,61.7752536 C177.472063,63.9587561 176.400529,66.6274813 176.400529,69.7814292 L176.400529,95.4982356 Z M176.400529,296.016542 L176.400529,322.461182 C176.400529,325.453389 177.492281,328.041244 179.675783,330.224746 C181.859285,332.408249 184.44714,333.5 187.439347,333.5 C190.431554,333.5 193.019409,332.408249 195.202911,330.224746 C197.386414,328.041244 198.478165,325.453389 198.478165,322.461182 L198.478165,296.016542 C198.478165,293.024335 197.406631,290.537568 195.263564,288.556242 C193.120497,286.574915 190.512425,285.584252 187.439347,285.584252 C184.36627,285.584252 181.758197,286.574915 179.61513,288.556242 C177.472063,290.537568 176.400529,293.024335 176.400529,296.016542 Z M247.849581,125.460741 C247.849581,128.452948 248.820026,130.879062 250.760918,132.739082 C252.701809,134.760844 255.127922,135.771725 258.039259,135.771725 C261.193207,135.771725 263.781062,134.760844 265.802823,132.739082 L284.726511,114.300618 C286.829143,112.036245 287.880459,109.407955 287.880459,106.415748 C287.880459,103.423541 286.829143,100.876121 284.726511,98.7734892 C279.550801,94.7299662 274.375092,94.7299662 269.199382,98.7734892 L250.760918,117.211954 C248.820026,119.395457 247.849581,122.145052 247.849581,125.460741 Z M247.849581,266.78187 C247.849581,270.016689 248.820026,272.564108 250.760918,274.424129 L269.199382,293.469122 C271.463755,295.571754 274.011175,296.62307 276.841641,296.62307 C279.914718,296.62307 282.522791,295.531319 284.665858,293.347816 C286.808925,291.164314 287.880459,288.576459 287.880459,285.584252 C287.880459,282.349434 286.829143,279.680709 284.726511,277.578077 L265.802823,259.139612 C263.45758,257.03698 260.869725,255.985664 258.039259,255.985664 C255.127922,255.985664 252.701809,257.016762 250.760918,259.078959 C248.820026,261.141156 247.849581,263.708793 247.849581,266.78187 Z M277.084252,196.060653 C277.084252,199.13373 278.135568,201.802456 280.2382,204.066828 C282.340832,206.16946 284.807381,207.220776 287.637847,207.220776 L313.839876,207.220776 C316.832084,207.220776 319.440156,206.108808 321.664094,203.88487 C323.888031,201.660932 325,199.05286 325,196.060653 C325,193.068446 323.888031,190.480591 321.664094,188.297089 C319.440156,186.113586 316.832084,185.021835 313.839876,185.021835 L287.637847,185.021835 C284.64564,185.021835 282.138656,186.093369 280.116895,188.236436 C278.095133,190.379503 277.084252,192.987575 277.084252,196.060653 Z" id="sun" transform="translate(187.500000, 196.000000) rotate(180.000000) translate(-187.500000, -196.000000) "></path>
        </g>
    </g>
</svg>